<svg width="512" height="512" xmlns="http://www.w3.org/2000/svg"><g fill="none" fill-rule="evenodd"><rect fill="#FFF" width="512" height="512" rx="89"/><g transform="translate(131.338 76.459)" fill-rule="nonzero"><ellipse fill="#3F3F3F" cx="128.234" cy="86.161" rx="85.631" ry="86.161"/><ellipse fill="#D22F27" cx="128.443" cy="231.884" rx="128.443" ry="139.657"/></g><g transform="translate(86 63)"><path d="M37.768 98.165c0 25.686 32.838 45.917 42.61 51.283M0 226.503c0 5.718 30.725 15.834 45.34 20.408M37.768 377.447c0-22.343 24.827-36.415 37.68-42.222M272 150.983s37.778-30.196 37.778-52.844M302.144 241.105A65.555 65.555 0 0 0 340 226.503M268.25 339.975c9.772.88 35.479 5.63 41.553 29.907M120.876 0c5.898 23.398 16.286 28.675 20.688 29.819M219.112 30.195S239.772 12.078 234.606 0" stroke="#000" stroke-width="15.526" stroke-linecap="round" stroke-linejoin="round"/><ellipse stroke="#000" stroke-width="15.526" stroke-linecap="round" stroke-linejoin="round" cx="173.781" cy="245.343" rx="128.443" ry="139.657"/><path stroke="#000" stroke-width="15.526" stroke-linecap="round" stroke-linejoin="round" d="M173.781 113.234v264.217"/><ellipse fill="#000" fill-rule="nonzero" cx="98.657" cy="203.393" rx="15.542" ry="15.529"/><ellipse fill="#000" fill-rule="nonzero" cx="249.766" cy="203.393" rx="15.542" ry="15.529"/><ellipse fill="#000" fill-rule="nonzero" cx="219.544" cy="248.687" rx="15.542" ry="15.529"/><ellipse fill="#000" fill-rule="nonzero" cx="249.766" cy="293.981" rx="15.542" ry="15.529"/><ellipse fill="#000" fill-rule="nonzero" cx="128.878" cy="248.687" rx="15.542" ry="15.529"/><ellipse fill="#000" fill-rule="nonzero" cx="98.657" cy="293.981" rx="15.542" ry="15.529"/><path d="M95.866 98.137c1.19-42.026 35.63-75.478 77.709-75.478 42.078 0 76.519 33.452 77.709 75.478" stroke="#000" stroke-width="15.526" stroke-linecap="round" stroke-linejoin="round"/></g></g></svg>